<svg width="60" height="60" viewBox="0 0 60 60" fill="none" xmlns="http://www.w3.org/2000/svg">
<path opacity="0.5" d="M53.125 30C53.125 24.0544 53.121 19.7839 52.684 16.534C52.2543 13.338 51.4371 11.4111 50.013 9.98699H50.0129C48.5888 8.56288 46.6621 7.74561 43.4661 7.31592C40.2161 6.87897 35.9455 6.875 30 6.875C24.0544 6.875 19.7839 6.87898 16.534 7.31592C13.338 7.74561 11.4111 8.56285 9.98699 9.98699C8.56285 11.4111 7.74561 13.338 7.31592 16.534C6.87898 19.7839 6.875 24.0544 6.875 30C6.875 35.9455 6.87897 40.2161 7.31592 43.4661C7.7389 46.6121 8.53739 48.5284 9.92063 49.9458L9.98699 50.0129V50.013C11.4111 51.4371 13.338 52.2543 16.534 52.684C19.7839 53.121 24.0544 53.125 30 53.125C35.9455 53.125 40.2161 53.121 43.4661 52.684C46.6621 52.2543 48.5889 51.4371 50.0129 50.013L50.013 50.0129C51.4371 48.5889 52.2543 46.6621 52.684 43.4661C53.121 40.2161 53.125 35.9455 53.125 30ZM56.875 30C56.875 35.8395 56.879 40.4078 56.4006 43.9657C55.915 47.5775 54.9016 50.4275 52.6645 52.6645C50.4276 54.9016 47.5776 55.915 43.9657 56.4006C40.4078 56.879 35.8395 56.875 30 56.875C24.1604 56.875 19.5921 56.879 16.0342 56.4006C12.4224 55.915 9.57234 54.9016 7.33533 52.6645V52.6645C5.09833 50.4275 4.08498 47.5775 3.59939 43.9657C3.12104 40.4078 3.125 35.8395 3.125 30C3.125 24.1604 3.12104 19.5921 3.59939 16.0342C4.08499 12.4224 5.0983 9.57234 7.33533 7.33533C9.57234 5.0983 12.4224 4.08499 16.0342 3.59939C19.5921 3.12104 24.1604 3.125 30 3.125C35.8395 3.125 40.4078 3.12104 43.9657 3.59939C47.5775 4.08499 50.4276 5.0983 52.6645 7.33533C54.9016 9.57234 55.915 12.4224 56.4006 16.0342C56.879 19.5921 56.875 24.1604 56.875 30Z" fill="black"/>
<path d="M28.125 37.5V31.875H22.5C21.4645 31.875 20.625 31.0355 20.625 30C20.625 28.9645 21.4645 28.125 22.5 28.125H28.125V22.5C28.125 21.4645 28.9645 20.625 30 20.625C31.0355 20.625 31.875 21.4645 31.875 22.5V28.125H37.5C38.5355 28.125 39.375 28.9645 39.375 30C39.375 31.0355 38.5355 31.875 37.5 31.875H31.875V37.5C31.875 38.5355 31.0355 39.375 30 39.375C28.9645 39.375 28.125 38.5355 28.125 37.5Z" fill="black"/>
</svg>
