<svg width="30" height="30" viewBox="0 0 30 30" fill="none" xmlns="http://www.w3.org/2000/svg">
<path d="M16.5625 15C16.5625 13.2057 16.5605 11.9544 16.4336 11.0102C16.3102 10.093 16.0847 9.60721 15.7387 9.26126C15.3927 8.9153 14.907 8.68976 13.9898 8.56644C13.0456 8.4395 11.7943 8.4375 10 8.4375C8.20573 8.4375 6.95432 8.4395 6.01013 8.56644C5.09293 8.68976 4.60721 8.9153 4.26126 9.26126C3.9153 9.60721 3.68976 10.0929 3.56644 11.0101C3.4395 11.9543 3.4375 13.2057 3.4375 15C3.4375 16.7943 3.4395 18.0456 3.56644 18.9898C3.68976 19.907 3.9153 20.3927 4.26126 20.7387C4.60721 21.0847 5.09296 21.3102 6.01017 21.4336C6.95435 21.5605 8.20574 21.5625 10 21.5625C10.5178 21.5625 10.9375 21.9822 10.9375 22.5C10.9375 23.0178 10.5178 23.4375 10 23.4375C8.25874 23.4375 6.85847 23.4395 5.7603 23.2919C4.63517 23.1406 3.68782 22.8169 2.93543 22.0645C2.18304 21.3121 1.85941 20.3648 1.70814 19.2397C1.5605 18.1415 1.5625 16.7412 1.5625 15C1.5625 13.2587 1.5605 11.8585 1.70814 10.7603C1.85941 9.63517 2.18303 8.68782 2.93543 7.93543C3.68782 7.18303 4.63517 6.85941 5.7603 6.70814C6.85847 6.5605 8.25873 6.5625 10 6.5625C11.7412 6.5625 13.1415 6.5605 14.2397 6.70814C15.3648 6.85941 16.3121 7.18304 17.0645 7.93543C17.8169 8.68782 18.1406 9.63517 18.2919 10.7603C18.4395 11.8585 18.4375 13.2587 18.4375 15C18.4375 15.5178 18.0178 15.9375 17.5 15.9375C16.9822 15.9375 16.5625 15.5178 16.5625 15Z" fill="white"/>
<path opacity="0.5" d="M11.5625 15C11.5625 14.4822 11.9822 14.0625 12.5 14.0625C13.0178 14.0625 13.4375 14.4822 13.4375 15C13.4375 16.7942 13.4395 18.0456 13.5664 18.9898C13.6898 19.907 13.9153 20.3927 14.2613 20.7387C14.6073 21.0847 15.093 21.3102 16.0102 21.4336C16.9544 21.5605 18.2058 21.5625 20 21.5625C21.7942 21.5625 23.0456 21.5605 23.9898 21.4336C24.907 21.3102 25.3927 21.0847 25.7387 20.7387C26.0847 20.3927 26.3102 19.907 26.4336 18.9898C26.5605 18.0456 26.5625 16.7942 26.5625 15C26.5625 13.2057 26.5605 11.9544 26.4336 11.0102C26.3102 10.093 26.0847 9.60721 25.7387 9.26126C25.3927 8.9153 24.907 8.68976 23.9898 8.56644C23.0456 8.4395 21.7943 8.4375 20 8.4375C19.4822 8.4375 19.0625 8.01777 19.0625 7.5C19.0625 6.98223 19.4822 6.5625 20 6.5625C21.7412 6.5625 23.1415 6.5605 24.2397 6.70814C25.3648 6.85941 26.3121 7.18304 27.0645 7.93543C27.8169 8.68782 28.1406 9.63517 28.2919 10.7603C28.4395 11.8585 28.4375 13.2587 28.4375 15C28.4375 16.7412 28.4395 18.1415 28.2919 19.2397C28.1406 20.3648 27.8169 21.3121 27.0645 22.0645C26.3121 22.8169 25.3648 23.1406 24.2397 23.2919C23.1415 23.4395 21.7412 23.4375 20 23.4375C18.2588 23.4375 16.8585 23.4395 15.7603 23.2919C14.6352 23.1406 13.6879 22.8169 12.9355 22.0645C12.1831 21.3121 11.8594 20.3648 11.7081 19.2397C11.5605 18.1415 11.5625 16.7412 11.5625 15Z" fill="white"/>
</svg>
