<svg width="30" height="30" viewBox="0 0 30 30" fill="none" xmlns="http://www.w3.org/2000/svg">
<path d="M26.5625 15C26.5625 21.3857 21.3857 26.5625 15 26.5625V28.4375C22.4214 28.4375 28.4375 22.4214 28.4375 15H26.5625ZM15 26.5625C8.61421 26.5625 3.4375 21.3857 3.4375 15H1.5625C1.5625 22.4214 7.57867 28.4375 15 28.4375V26.5625ZM3.4375 15C3.4375 8.61421 8.61421 3.4375 15 3.4375V1.5625C7.57867 1.5625 1.5625 7.57867 1.5625 15H3.4375ZM19.375 17.8125C15.4055 17.8125 12.1875 14.5945 12.1875 10.625H10.3125C10.3125 15.6301 14.3699 19.6875 19.375 19.6875V17.8125ZM25.5316 14.3362C24.2715 16.4216 21.9852 17.8125 19.375 17.8125V19.6875C22.6686 19.6875 25.5509 17.9299 27.1365 15.3059L25.5316 14.3362ZM12.1875 10.625C12.1875 8.01477 13.5784 5.7285 15.6637 4.46834L14.6941 2.86356C12.0701 4.44912 10.3125 7.33136 10.3125 10.625H12.1875ZM15 3.4375C14.8894 3.4375 14.7596 3.3876 14.6655 3.2896C14.5857 3.20659 14.5672 3.12805 14.5629 3.09629C14.5576 3.05734 14.5602 2.94446 14.6941 2.86356L15.6637 4.46834C16.2927 4.08831 16.495 3.39247 16.421 2.84534C16.3442 2.27657 15.8957 1.5625 15 1.5625V3.4375ZM27.1365 15.3059C27.0555 15.4397 26.9426 15.4424 26.9037 15.4371C26.872 15.4327 26.7934 15.4142 26.7104 15.3345C26.6124 15.2404 26.5625 15.1106 26.5625 15H28.4375C28.4375 14.1042 27.7234 13.6557 27.1546 13.579C26.6075 13.505 25.9116 13.7072 25.5316 14.3362L27.1365 15.3059Z" fill="white"/>
</svg>
