<svg width="30" height="30" viewBox="0 0 30 30" fill="none" xmlns="http://www.w3.org/2000/svg">
<path opacity="0.5" d="M26.5625 15C26.5625 12.0272 26.5605 9.89195 26.342 8.26698C26.1272 6.66898 25.7186 5.70556 25.0065 4.99349H25.0064C24.2944 4.28144 23.331 3.87281 21.733 3.65796C20.1081 3.43949 17.9727 3.4375 15 3.4375C12.0272 3.4375 9.89195 3.43949 8.26698 3.65796C6.66898 3.87281 5.70556 4.28142 4.99349 4.99349C4.28142 5.70556 3.87281 6.66898 3.65796 8.26698C3.43949 9.89195 3.4375 12.0272 3.4375 15C3.4375 17.9727 3.43949 20.1081 3.65796 21.733C3.86945 23.3061 4.26869 24.2642 4.96032 24.9729L4.99349 25.0064V25.0065C5.70556 25.7186 6.66898 26.1272 8.26698 26.342C9.89195 26.5605 12.0272 26.5625 15 26.5625C17.9727 26.5625 20.1081 26.5605 21.733 26.342C23.331 26.1272 24.2944 25.7185 25.0064 25.0065L25.0065 25.0064C25.7185 24.2944 26.1272 23.331 26.342 21.733C26.5605 20.1081 26.5625 17.9727 26.5625 15ZM28.4375 15C28.4375 17.9197 28.4395 20.2039 28.2003 21.9829C27.9575 23.7888 27.4508 25.2138 26.3323 26.3322C25.2138 27.4508 23.7888 27.9575 21.9829 28.2003C20.2039 28.4395 17.9197 28.4375 15 28.4375C12.0802 28.4375 9.79606 28.4395 8.01711 28.2003C6.2112 27.9575 4.78617 27.4508 3.66766 26.3323V26.3322C2.54917 25.2138 2.04249 23.7888 1.7997 21.9829C1.56052 20.2039 1.5625 17.9197 1.5625 15C1.5625 12.0802 1.56052 9.79606 1.7997 8.01711C2.0425 6.2112 2.54915 4.78617 3.66766 3.66766C4.78617 2.54915 6.2112 2.0425 8.01711 1.7997C9.79606 1.56052 12.0802 1.5625 15 1.5625C17.9197 1.5625 20.2039 1.56052 21.9829 1.7997C23.7888 2.04249 25.2138 2.54915 26.3323 3.66766C27.4508 4.78617 27.9575 6.2112 28.2003 8.01711C28.4395 9.79606 28.4375 12.0802 28.4375 15Z" fill="white"/>
<path d="M14.0625 16.25V14.6875C14.0625 14.0552 14.3393 13.542 14.6582 13.1662C14.9732 12.795 15.3661 12.5116 15.7143 12.3055L15.7337 12.2939C16.1391 12.0452 16.4063 11.6001 16.4063 11.0938C16.4063 10.3171 15.7766 9.6875 15 9.6875C14.2234 9.6875 13.5938 10.3171 13.5938 11.0938C13.5937 11.6115 13.174 12.0313 12.6563 12.0313C12.1385 12.0313 11.7188 11.6115 11.7188 11.0938C11.7188 9.28156 13.1879 7.8125 15 7.8125C16.8121 7.8125 18.2813 9.28156 18.2813 11.0938C18.2813 12.2979 17.632 13.3495 16.6692 13.9192L16.669 13.9193C16.4231 14.0648 16.2201 14.2236 16.0878 14.3795C15.9594 14.5307 15.9375 14.6295 15.9375 14.6875V16.25C15.9375 16.7678 15.5178 17.1875 15 17.1875C14.4822 17.1875 14.0625 16.7678 14.0625 16.25Z" fill="white"/>
<path d="M15 21.25C15.6904 21.25 16.25 20.6904 16.25 20C16.25 19.3096 15.6904 18.75 15 18.75C14.3096 18.75 13.75 19.3096 13.75 20C13.75 20.6904 14.3096 21.25 15 21.25Z" fill="white"/>
</svg>
