<svg width="30" height="30" viewBox="0 0 30 30" fill="none" xmlns="http://www.w3.org/2000/svg">
<path opacity="0.5" d="M18.75 6.5625C19.2678 6.5625 19.6875 6.98223 19.6875 7.5C19.6875 8.01777 19.2678 8.4375 18.75 8.4375H3.75C3.23223 8.4375 2.8125 8.01777 2.8125 7.5C2.8125 6.98223 3.23223 6.5625 3.75 6.5625H18.75Z" fill="white"/>
<path opacity="0.5" d="M16.25 11.5625C16.7678 11.5625 17.1875 11.9822 17.1875 12.5C17.1875 13.0178 16.7678 13.4375 16.25 13.4375H3.75C3.23223 13.4375 2.8125 13.0178 2.8125 12.5C2.8125 11.9822 3.23223 11.5625 3.75 11.5625H16.25Z" fill="white"/>
<path opacity="0.5" d="M11.25 16.5625C11.7678 16.5625 12.1875 16.9822 12.1875 17.5C12.1875 18.0178 11.7678 18.4375 11.25 18.4375H3.75C3.23223 18.4375 2.8125 18.0178 2.8125 17.5C2.8125 16.9822 3.23223 16.5625 3.75 16.5625H11.25Z" fill="white"/>
<path opacity="0.5" d="M10 21.5625C10.5178 21.5625 10.9375 21.9822 10.9375 22.5C10.9375 23.0178 10.5178 23.4375 10 23.4375H3.75C3.23223 23.4375 2.8125 23.0178 2.8125 22.5C2.8125 21.9822 3.23223 21.5625 3.75 21.5625H10Z" fill="white"/>
<path d="M20.3125 20.625V10C20.3125 9.48223 20.7322 9.0625 21.25 9.0625C21.7678 9.0625 22.1875 9.48223 22.1875 10V20.625C22.1875 21.1428 21.7678 21.5625 21.25 21.5625C20.7322 21.5625 20.3125 21.1428 20.3125 20.625Z" fill="white"/>
<path d="M20.3125 20.625C20.3125 19.4169 19.3331 18.4375 18.125 18.4375C16.9169 18.4375 15.9375 19.4169 15.9375 20.625C15.9375 21.8331 16.9169 22.8125 18.125 22.8125C19.3331 22.8125 20.3125 21.8331 20.3125 20.625ZM22.1875 20.625C22.1875 22.8686 20.3686 24.6875 18.125 24.6875C15.8813 24.6875 14.0625 22.8686 14.0625 20.625C14.0625 18.3813 15.8813 16.5625 18.125 16.5625C20.3686 16.5625 22.1875 18.3813 22.1875 20.625Z" fill="white"/>
<path d="M20.3125 10C20.3125 9.48223 20.7322 9.0625 21.25 9.0625C21.7678 9.0625 22.1875 9.48223 22.1875 10C22.1875 12.2436 24.0064 14.0625 26.25 14.0625C26.7678 14.0625 27.1875 14.4822 27.1875 15C27.1875 15.5178 26.7678 15.9375 26.25 15.9375C22.9709 15.9375 20.3125 13.2791 20.3125 10Z" fill="white"/>
</svg>
