<svg viewBox="180 120 440 640" fill="none" xmlns="http://www.w3.org/2000/svg">
<path d="M416.666 291.667C416.666 282.462 409.206 275 400 275C390.795 275 383.333 282.462 383.333 291.667C383.333 300.872 390.795 308.333 400 308.333C409.206 308.333 416.666 300.872 416.666 291.667ZM466.666 291.667C466.666 328.485 436.821 358.333 400 358.333C363.179 358.333 333.333 328.485 333.333 291.667C333.333 254.848 363.179 225 400 225C436.821 225 466.666 254.849 466.666 291.667Z" fill="black"/>
<path opacity="0.4" d="M608.334 301.824C608.334 185.573 514.876 91.6667 400 91.6667C285.124 91.6669 191.667 185.573 191.667 301.824C191.667 359.278 214.486 411.274 251.489 449.211C261.13 459.095 260.933 474.923 251.049 484.563C241.165 494.204 225.337 494.007 215.696 484.123C169.914 437.186 141.667 372.788 141.667 301.824C141.667 158.327 257.143 41.6669 400 41.6667C542.857 41.6667 658.334 158.327 658.334 301.824C658.334 372.187 630.558 436.102 585.457 482.932C575.879 492.877 560.053 493.175 550.108 483.597C540.163 474.02 539.865 458.193 549.443 448.248C585.895 410.398 608.334 358.792 608.334 301.824Z" fill="black"/>
<path opacity="0.7" d="M515 301.821C515 237.52 463.329 185.726 400 185.726C336.672 185.726 285.002 237.52 285.002 301.821C285.002 333.351 297.418 361.875 317.591 382.792C327.175 392.731 326.888 408.558 316.949 418.142C307.01 427.726 291.184 427.439 281.599 417.5C252.763 387.598 235.002 346.756 235.002 301.821C235.002 210.274 308.691 135.726 400 135.726C491.31 135.726 565 210.273 565 301.821C565 346.119 547.741 386.441 519.622 416.223C510.143 426.263 494.32 426.716 484.281 417.238C474.242 407.759 473.787 391.936 483.265 381.897C502.933 361.066 515 332.908 515 301.821Z" fill="black"/>
<path d="M400 308.333C410.761 308.333 420.315 315.22 423.718 325.428L557.051 725.428C561.417 738.527 554.338 752.684 541.239 757.05C528.14 761.416 513.982 754.337 509.616 741.239L400 412.39L290.384 741.239C286.017 754.337 271.86 761.416 258.762 757.05C245.663 752.684 238.584 738.527 242.95 725.428L376.283 325.428C379.686 315.22 389.239 308.334 400 308.333Z" fill="black"/>
<path d="M483.334 558.333C497.141 558.333 508.334 569.526 508.334 583.333C508.334 597.14 497.141 608.333 483.334 608.333H316.667C302.86 608.333 291.667 597.14 291.667 583.333C291.667 569.526 302.86 558.333 316.667 558.333H483.334Z" fill="black"/>
</svg>
