<svg width="800" height="800" viewBox="0 0 800 800" fill="none" xmlns="http://www.w3.org/2000/svg">
<path d="M510.92 208.333C566.453 208.333 610.612 208.281 644.72 212.818C678.823 217.354 707.203 226.949 728.589 249.398L729.601 250.477L729.602 250.478C751.334 273.953 758.068 302.883 758.325 336.677C758.575 369.599 752.627 411.32 745.305 463.256V463.257L731.205 563.257C725.471 603.925 720.877 636.885 713.671 662.633C706.239 689.187 695.284 711.034 675.001 727.829L675 727.83C654.876 744.491 631.002 751.674 602.784 755.06C575.156 758.375 540.309 758.333 496.82 758.333H303.178C259.69 758.333 224.844 758.375 197.216 755.06C168.998 751.674 145.125 744.491 125.002 727.83L125.001 727.829C104.718 711.035 93.7623 689.188 86.3297 662.634C79.1226 636.885 74.5283 603.925 68.7946 563.257L54.695 463.257C47.3726 411.321 41.4246 369.599 41.6745 336.677C41.931 302.882 48.6662 273.952 70.3991 250.477C91.8974 227.255 120.636 217.426 155.279 212.818C189.387 208.281 233.547 208.333 289.08 208.333H510.92ZM289.08 258.333C232.119 258.333 191.909 258.386 161.871 262.381C132.369 266.305 117.186 273.539 107.09 284.445C97.2275 295.097 91.881 309.593 91.6725 337.056C91.4574 365.392 96.6605 402.76 104.206 456.277L118.304 556.277C124.23 598.305 128.38 627.367 134.479 649.157C140.353 670.141 147.266 681.349 156.889 689.318H156.888C166.671 697.417 179.806 702.612 203.173 705.416C227.131 708.291 258.449 708.333 303.178 708.333H496.82C541.55 708.333 572.869 708.291 596.828 705.416C620.196 702.612 633.331 697.416 643.114 689.317C652.737 681.348 659.648 670.14 665.521 649.157C671.62 627.367 675.769 598.305 681.695 556.277V556.276L695.795 456.276C703.339 402.759 708.542 365.392 708.327 337.056C708.118 309.593 702.772 295.097 692.911 284.445V284.444C682.813 273.538 667.629 266.305 638.129 262.381C608.091 258.386 567.88 258.333 510.92 258.333H289.08Z" fill="black"/>
<path opacity="0.5" d="M508.626 41.6668C516.64 41.6668 522.654 41.6302 527.872 42.1902C573.009 47.0344 607.561 84.1008 609.655 129.005C654.899 142.515 685.323 188.345 676.681 237.649L627.432 229.017C632.373 200.827 610.678 175 582.056 175H217.929C189.307 175 167.614 200.826 172.553 229.018L123.303 237.648C114.664 188.344 145.087 142.511 190.335 129.003C192.432 84.1015 226.981 47.0342 272.12 42.1902L273.107 42.0916C278.096 41.6341 283.853 41.6668 291.367 41.6668H508.626ZM291.367 91.6668C282.005 91.6668 279.331 91.7037 277.456 91.905C259.116 93.8732 244.623 107.544 241.073 125H558.918C555.433 107.86 541.398 94.3685 523.526 92.0232L522.536 91.905C520.66 91.7037 517.987 91.6668 508.626 91.6668H291.367Z" fill="black"/>
</svg>
