<svg width="30" height="30" viewBox="0 0 30 30" fill="none" xmlns="http://www.w3.org/2000/svg">
<path d="M24.3371 16.2121C24.7032 15.846 25.2968 15.846 25.6629 16.2121C26.029 16.5782 26.029 17.1718 25.6629 17.5379L23.2008 20L25.6629 22.4621C26.029 22.8282 26.029 23.4218 25.6629 23.7879C25.2968 24.154 24.7032 24.154 24.3371 23.7879L21.875 21.3258L19.4129 23.7879C19.0468 24.154 18.4532 24.154 18.0871 23.7879C17.721 23.4218 17.721 22.8282 18.0871 22.4621L20.5492 20L18.0871 17.5379C17.721 17.1718 17.721 16.5782 18.0871 16.2121C18.4532 15.846 19.0468 15.846 19.4129 16.2121L21.875 18.6742L24.3371 16.2121Z" fill="white"/>
<path opacity="0.5" d="M26.25 6.5625C26.7678 6.5625 27.1875 6.98223 27.1875 7.5C27.1875 8.01777 26.7678 8.4375 26.25 8.4375H3.75C3.23223 8.4375 2.8125 8.01777 2.8125 7.5C2.8125 6.98223 3.23223 6.5625 3.75 6.5625H26.25Z" fill="white"/>
<path opacity="0.5" d="M26.25 11.5625C26.7678 11.5625 27.1875 11.9822 27.1875 12.5C27.1875 13.0178 26.7678 13.4375 26.25 13.4375H3.75C3.23223 13.4375 2.8125 13.0178 2.8125 12.5C2.8125 11.9822 3.23223 11.5625 3.75 11.5625H26.25Z" fill="white"/>
<path opacity="0.5" d="M13.75 16.5625C14.2678 16.5625 14.6875 16.9822 14.6875 17.5C14.6875 18.0178 14.2678 18.4375 13.75 18.4375H3.75C3.23223 18.4375 2.8125 18.0178 2.8125 17.5C2.8125 16.9822 3.23223 16.5625 3.75 16.5625H13.75Z" fill="white"/>
<path opacity="0.5" d="M13.75 21.5625C14.2678 21.5625 14.6875 21.9822 14.6875 22.5C14.6875 23.0178 14.2678 23.4375 13.75 23.4375H3.75C3.23223 23.4375 2.8125 23.0178 2.8125 22.5C2.8125 21.9822 3.23223 21.5625 3.75 21.5625H13.75Z" fill="white"/>
</svg>
