<svg width="30" height="30" viewBox="0 0 30 30" fill="none" xmlns="http://www.w3.org/2000/svg">
<path d="M15.1125 25.825C14.657 25.8243 14.2019 25.7952 13.75 25.7375C11.3436 25.4241 9.10825 24.3237 7.39225 22.6077C5.67625 20.8917 4.57589 18.6565 4.26252 16.25C3.9006 13.5301 4.57899 10.7739 6.16194 8.53271C7.74489 6.29155 10.1157 4.73071 12.8 4.16244C13.0943 4.09561 13.4018 4.11687 13.684 4.22356C13.9664 4.33026 14.211 4.51767 14.3875 4.76244C14.5684 5.01586 14.6708 5.31689 14.6819 5.62805C14.693 5.9392 14.6124 6.24676 14.45 6.51244C13.6871 7.82141 13.396 9.35231 13.625 10.8499C13.8373 12.2259 14.4824 13.4986 15.4669 14.4831C16.4514 15.4675 17.724 16.1127 19.1 16.325C20.5993 16.5618 22.1341 16.2655 23.4375 15.4875C23.7056 15.3287 24.0145 15.2523 24.3256 15.2678C24.6369 15.2835 24.9366 15.3902 25.1875 15.575C25.4325 15.7483 25.6204 15.9906 25.7273 16.2711C25.834 16.5516 25.855 16.8575 25.7875 17.15C25.2805 19.6046 23.941 21.8088 21.9958 23.3896C20.0506 24.9703 17.619 25.8307 15.1125 25.825ZM12.5 6.24994C10.9915 6.69326 9.62421 7.52145 8.5326 8.65312C7.441 9.78478 6.66263 11.181 6.27394 12.7046C5.88526 14.2281 5.89966 15.8266 6.31574 17.3428C6.7318 18.8591 7.53523 20.2411 8.64704 21.353C9.75885 22.4647 11.1408 23.2681 12.6571 23.6842C14.1734 24.1003 15.7719 24.1147 17.2954 23.726C18.819 23.3373 20.2151 22.559 21.3469 21.4673C22.4785 20.3757 23.3066 19.0085 23.75 17.5C22.5666 18.0768 21.2644 18.3685 19.9479 18.3512C18.6315 18.3341 17.3374 18.0086 16.1694 17.4008C15.0014 16.7932 13.9921 15.9202 13.2225 14.8521C12.4529 13.7838 11.9443 12.5502 11.7375 11.2499C11.4744 9.54451 11.7405 7.79942 12.5 6.24994Z" fill="white"/>
</svg>
