<svg width="30" height="30" viewBox="0 0 30 30" fill="none" xmlns="http://www.w3.org/2000/svg">
<path d="M20.3125 15C20.3125 12.066 17.934 9.68751 15 9.6875C12.066 9.6875 9.6875 12.066 9.6875 15C9.68751 17.934 12.066 20.3125 15 20.3125C17.934 20.3125 20.3125 17.934 20.3125 15ZM22.1875 15C22.1875 18.9695 18.9695 22.1875 15 22.1875C11.0305 22.1875 7.81251 18.9696 7.8125 15C7.8125 11.0305 11.0305 7.8125 15 7.8125C18.9696 7.81251 22.1875 11.0305 22.1875 15Z" fill="white"/>
<path d="M14.0625 5.00001V2.5C14.0625 1.98223 14.4822 1.5625 15 1.5625C15.5178 1.5625 15.9375 1.98223 15.9375 2.5V5.00001C15.9375 5.51777 15.5178 5.93751 15 5.93751C14.4822 5.93751 14.0625 5.51777 14.0625 5.00001Z" fill="white"/>
<path d="M14.0625 27.5V25C14.0625 24.4822 14.4822 24.0625 15 24.0625C15.5178 24.0625 15.9375 24.4822 15.9375 25V27.5C15.9375 28.0178 15.5178 28.4375 15 28.4375C14.4822 28.4375 14.0625 28.0178 14.0625 27.5Z" fill="white"/>
<path d="M5.00001 14.0625C5.51777 14.0625 5.93751 14.4822 5.93751 15C5.93751 15.5178 5.51777 15.9375 5.00001 15.9375H2.5C1.98223 15.9375 1.5625 15.5178 1.5625 15C1.5625 14.4822 1.98223 14.0625 2.5 14.0625H5.00001Z" fill="white"/>
<path d="M27.5 14.0625C28.0178 14.0625 28.4375 14.4822 28.4375 15C28.4375 15.5178 28.0178 15.9375 27.5 15.9375H25C24.4822 15.9375 24.0625 15.5178 24.0625 15C24.0625 14.4822 24.4822 14.0625 25 14.0625H27.5Z" fill="white"/>
<path opacity="0.5" d="M24.0897 4.58643C24.4718 4.23706 25.0648 4.2636 25.4142 4.64572C25.7635 5.02784 25.737 5.62082 25.3549 5.9702L22.5773 8.50969C22.1952 8.85905 21.6023 8.83251 21.2529 8.4504C20.9035 8.06827 20.93 7.47526 21.3122 7.12588L24.0897 4.58643Z" fill="white"/>
<path opacity="0.5" d="M4.58582 4.64572C4.9352 4.2636 5.52817 4.23706 5.9103 4.58643L8.68782 7.12588C9.06995 7.47526 9.09649 8.06827 8.74711 8.4504C8.39774 8.83252 7.80472 8.85906 7.4226 8.50968L4.64511 5.97019C4.26299 5.62082 4.23645 5.02784 4.58582 4.64572Z" fill="white"/>
<path opacity="0.5" d="M7.39252 21.2817C7.75864 20.9156 8.35223 20.9156 8.71835 21.2817C9.08446 21.6478 9.08447 22.2414 8.71835 22.6076L5.94057 25.3853C5.57445 25.7514 4.98085 25.7514 4.61474 25.3853C4.24862 25.0192 4.24862 24.4256 4.61474 24.0595L7.39252 21.2817Z" fill="white"/>
<path opacity="0.5" d="M21.2819 21.2809C21.648 20.9148 22.2416 20.9149 22.6077 21.281L25.3852 24.0587C25.7513 24.4249 25.7513 25.0185 25.3851 25.3846C25.019 25.7507 24.4254 25.7506 24.0593 25.3845L21.2818 22.6068C20.9157 22.2406 20.9158 21.647 21.2819 21.2809Z" fill="white"/>
</svg>
