<svg width="800" height="800" viewBox="0 0 800 800" fill="none" xmlns="http://www.w3.org/2000/svg">
<path opacity="0.5" d="M708.334 400C708.334 320.726 708.28 263.785 702.454 220.453C696.724 177.84 685.828 152.148 666.839 133.16H666.839C647.851 114.172 622.161 103.275 579.547 97.5457C536.215 91.7197 479.273 91.6668 400 91.6668C320.726 91.6668 263.785 91.7198 220.453 97.5457C177.839 103.275 152.148 114.171 133.16 133.16C114.171 152.148 103.275 177.839 97.5455 220.453C91.7197 263.785 91.6666 320.726 91.6666 400C91.6666 479.273 91.7196 536.215 97.5455 579.548C103.185 621.495 113.832 647.045 132.275 665.944L133.16 666.839V666.84C152.148 685.829 177.839 696.725 220.453 702.454C263.785 708.28 320.726 708.334 400 708.334C479.273 708.334 536.215 708.28 579.547 702.454C622.161 696.724 647.851 685.828 666.839 666.84L666.839 666.839C685.828 647.851 696.724 622.161 702.454 579.548C708.28 536.215 708.334 479.273 708.334 400ZM758.334 400C758.334 477.86 758.387 538.771 752.008 586.21C745.534 634.367 732.021 672.367 702.194 702.193C672.368 732.021 634.367 745.534 586.21 752.009C538.771 758.387 477.86 758.334 400 758.334C322.139 758.334 261.228 758.387 213.79 752.009C165.632 745.534 127.631 732.022 97.8043 702.194V702.193C67.9777 672.367 54.4664 634.367 47.9918 586.21C41.6139 538.771 41.6666 477.86 41.6666 400C41.6666 322.139 41.6139 261.228 47.9918 213.79C54.4665 165.632 67.9774 127.631 97.8043 97.8045C127.631 67.9775 165.632 54.4666 213.79 47.992C261.228 41.614 322.139 41.6668 400 41.6668C477.86 41.6668 538.771 41.614 586.21 47.992C634.367 54.4666 672.368 67.9775 702.194 97.8045C732.022 127.631 745.534 165.632 752.008 213.79C758.387 261.228 758.334 322.139 758.334 400Z" fill="black"/>
<path d="M375 433.333V391.666C375 374.804 382.381 361.121 390.886 351.1C399.286 341.201 409.762 333.641 419.049 328.148L419.566 327.836C430.375 321.204 437.5 309.337 437.5 295.833C437.5 275.123 420.71 258.333 400 258.333C379.29 258.333 362.5 275.123 362.5 295.833C362.5 309.64 351.307 320.833 337.5 320.833C323.693 320.833 312.5 309.64 312.5 295.833C312.5 247.508 351.676 208.333 400 208.333C448.324 208.333 487.5 247.508 487.5 295.833C487.5 327.945 470.187 355.986 444.512 371.179L444.508 371.181C437.949 375.06 432.536 379.297 429.009 383.452C425.585 387.486 425 390.119 425 391.666V433.333C425 447.14 413.807 458.333 400 458.333C386.193 458.333 375 447.14 375 433.333Z" fill="black"/>
<path d="M400 566.667C418.409 566.667 433.333 551.743 433.333 533.333C433.333 514.924 418.409 500 400 500C381.59 500 366.667 514.924 366.667 533.333C366.667 551.743 381.59 566.667 400 566.667Z" fill="black"/>
</svg>
