<svg width="30" height="30" viewBox="0 0 30 30" fill="none" xmlns="http://www.w3.org/2000/svg">
<path opacity="0.5" d="M25 6.5625C25.5178 6.56251 25.9375 6.98224 25.9375 7.5C25.9375 8.01776 25.5178 8.43749 25 8.4375H3.75C3.23223 8.4375 2.8125 8.01777 2.8125 7.5C2.8125 6.98223 3.23223 6.5625 3.75 6.5625H25Z" fill="white"/>
<path opacity="0.5" d="M12.5 19.0625C13.0178 19.0625 13.4375 19.4822 13.4375 20C13.4375 20.5178 13.0178 20.9375 12.5 20.9375H3.75C3.23223 20.9375 2.8125 20.5178 2.8125 20C2.8125 19.4822 3.23223 19.0625 3.75 19.0625H12.5Z" fill="white"/>
<path opacity="0.5" d="M12.5 12.8125C13.0178 12.8125 13.4375 13.2322 13.4375 13.75C13.4375 14.2678 13.0178 14.6875 12.5 14.6875H3.75C3.23223 14.6875 2.8125 14.2678 2.8125 13.75C2.8125 13.2322 3.23223 12.8125 3.75 12.8125H12.5Z" fill="white"/>
<path d="M19.8638 10.7603C20.5513 10.6698 21.2171 10.881 21.8815 11.1845C22.5502 11.4899 23.3654 11.9618 24.375 12.5446C25.3846 13.1275 26.2008 13.5976 26.7996 14.024C27.3854 14.441 27.8944 14.9039 28.1633 15.5293L28.1759 15.5593L28.1759 15.5594C28.5246 16.4016 28.5247 17.3479 28.1759 18.1901L28.1759 18.1901C27.9105 18.8309 27.3947 19.3019 26.7997 19.7256C26.2009 20.152 25.3845 20.6221 24.375 21.2049L24.375 21.205C23.3654 21.7878 22.5502 22.2596 21.8815 22.565C21.2275 22.8637 20.5721 23.073 19.896 22.9932L19.8638 22.9891C18.96 22.8702 18.1404 22.397 17.5854 21.6737L17.5853 21.6737C17.1632 21.1235 17.0132 20.4413 16.9438 19.7142C16.874 18.9824 16.875 18.0405 16.875 16.8748C16.875 15.7091 16.874 14.7671 16.9438 14.0353C17.0132 13.3082 17.1632 12.626 17.5854 12.0758C18.1404 11.3525 18.96 10.8793 19.8637 10.7603H19.8638ZM18.75 16.8748C18.75 18.0791 18.751 18.9145 18.8104 19.5361C18.8701 20.1621 18.9784 20.4091 19.0729 20.5323L19.0969 20.5628C19.3485 20.8743 19.7106 21.0778 20.1085 21.1302L20.1232 21.1319C20.2793 21.1483 20.5482 21.1126 21.1025 20.8594C21.5995 20.6325 22.216 20.285 23.0611 19.7983L23.4375 19.5811C24.4805 18.979 25.2035 18.5603 25.7121 18.1982C26.2245 17.8334 26.3842 17.616 26.4436 17.4727C26.6021 17.0899 26.6021 16.6597 26.4435 16.2766V16.2766C26.3841 16.1333 26.2243 15.916 25.7121 15.5514C25.2035 15.1892 24.4804 14.7706 23.4375 14.1684C22.3946 13.5663 21.6705 13.1494 21.1025 12.89C20.5304 12.6287 20.2623 12.599 20.1085 12.6193C19.7106 12.6717 19.3485 12.8752 19.0969 13.1867L19.0729 13.2172C18.9785 13.3403 18.8701 13.5873 18.8104 14.2134C18.751 14.835 18.75 15.6705 18.75 16.8748Z" fill="white"/>
</svg>
