<svg width="30" height="30" viewBox="0 0 30 30" fill="none" xmlns="http://www.w3.org/2000/svg">
<path d="M12.8125 7.57196C12.8128 7.08489 12.8174 6.63392 12.8682 6.28114C12.9231 5.90029 13.0809 5.25937 13.7349 4.96563V4.9656C14.389 4.6718 14.9729 4.97982 15.294 5.19177C15.6339 5.41621 16.0295 5.77105 16.4533 6.14776L21.4187 10.5614C22.3781 11.4142 23.173 12.1179 23.7157 12.7557C24.2757 13.4138 24.6745 14.1224 24.6745 14.9992C24.6745 15.876 24.2757 16.5845 23.7157 17.2427C23.173 17.8804 22.3781 18.5841 21.4187 19.4369L21.4187 19.437L16.4533 23.8506V23.8506C16.0296 24.2273 15.6339 24.5821 15.294 24.8065C14.973 25.0185 14.3889 25.3266 13.7348 25.0327V25.0326C13.0808 24.7389 12.9231 24.098 12.8682 23.7172C12.8174 23.3645 12.8128 22.9135 12.8125 22.4264V20.255C10.9981 20.38 9.15954 20.8619 7.55129 21.6455C5.66011 22.567 4.14973 23.8737 3.33005 25.4349C3.12956 25.8168 2.69437 26.0126 2.27559 25.9094C1.8568 25.8061 1.5625 25.4305 1.5625 24.9991C1.5625 19.098 3.28924 15.2555 5.75814 12.8932C7.91014 10.8342 10.5329 9.98929 12.8125 9.81247V7.57196ZM14.6875 10.7135C14.6875 11.2312 14.2678 11.651 13.75 11.651C11.638 11.651 9.07944 12.3104 7.05438 14.248C5.42802 15.8041 4.06592 18.2615 3.60497 22.0702C4.51231 21.2256 5.58143 20.5196 6.72996 19.96C8.87492 18.9148 11.3593 18.3474 13.75 18.3474C14.2678 18.3474 14.6875 18.7671 14.6875 19.2849V22.2156C14.6875 22.4915 14.688 22.7169 14.6913 22.903C14.8327 22.7819 15.0015 22.6325 15.2077 22.4492L20.173 18.0356C21.1744 17.1454 21.85 16.5419 22.2877 16.0275C22.7081 15.5336 22.7995 15.2451 22.7995 14.9992C22.7995 14.7533 22.7081 14.4648 22.2877 13.9708C21.85 13.4564 21.1744 12.8529 20.173 11.9628L15.2077 7.54914C15.0015 7.36585 14.8327 7.21646 14.6913 7.09533C14.688 7.28144 14.6875 7.50682 14.6875 7.78271V10.7135Z" fill="white"/>
<path opacity="0.5" d="M26.5626 15.2493C26.5626 14.1554 26.1072 13.1108 25.3056 12.3665L18.7853 6.31203C18.4059 5.95972 18.3839 5.3665 18.7362 4.98708C19.0885 4.60767 19.6818 4.58569 20.0612 4.93801L26.5814 10.9925C27.7651 12.0917 28.4376 13.6341 28.4376 15.2493C28.4376 16.9521 27.6905 18.569 26.3939 19.6728V19.6728L20.0309 25.0889C19.6366 25.4245 19.0449 25.3769 18.7093 24.9827C18.3737 24.5884 18.4213 23.9967 18.8156 23.6611L25.1786 18.245C26.0567 17.4975 26.5626 16.4024 26.5626 15.2493Z" fill="white"/>
</svg>
