<svg width="800" height="800" viewBox="0 0 800 800" fill="none" xmlns="http://www.w3.org/2000/svg">
<path d="M416.667 141.667C442.069 141.667 459.733 157.701 473.448 175.609C487.15 193.501 501.627 219.604 519.163 251.063L528.449 267.718L528.451 267.722C539.732 287.964 542.182 291.338 544.977 293.46L545.485 293.828C548.119 295.64 552.452 297.088 573.034 301.745L603.546 308.652C632.042 315.133 656.058 320.89 674.151 328.02C695.299 336.355 714.755 349.007 722.246 373.096L722.582 374.211C729.387 397.588 720.997 418.889 708.967 437.998C696.916 457.141 677.615 479.609 654.397 506.759L642.108 521.133L642.107 521.135C627.254 538.504 624.846 542.041 623.69 545.759L623.689 545.761C622.575 549.343 622.488 553.57 624.332 573.156L624.727 577.283V577.288L626.583 596.462C630.097 632.722 633.058 662.648 632.042 685.438C631.025 708.27 625.813 731.324 605.887 746.452C585.552 761.89 562.058 759.922 540.423 753.723C519.11 747.616 492.561 735.313 460.734 720.659L443.851 712.885C423.214 703.383 419.729 702.37 416.667 702.37C413.604 702.37 410.12 703.383 389.483 712.885L372.599 720.659C340.771 735.313 314.223 747.616 292.91 753.723C271.275 759.923 247.783 761.89 227.447 746.452C207.519 731.324 202.307 708.27 201.29 685.438C200.274 662.648 203.236 632.723 206.75 596.463L208.608 577.285C210.851 554.136 210.833 549.584 209.644 545.762L209.643 545.759C208.487 542.04 206.079 538.503 191.227 521.133L178.936 506.761C155.717 479.611 136.417 457.141 124.366 437.998C112.145 418.585 103.682 396.911 111.088 373.095C118.579 349.007 138.034 336.355 159.182 328.02C179.86 319.871 208.274 313.516 242.27 305.824L260.3 301.745C282.251 296.778 285.718 295.461 288.357 293.459C291.153 291.336 293.601 287.964 304.885 267.72L314.17 251.064C331.707 219.605 346.184 193.501 359.886 175.609C373.601 157.701 391.265 141.667 416.667 141.667ZM416.667 191.667C415.242 191.667 410.519 191.729 399.583 206.009C390.002 218.52 379.281 237.067 364.457 263.562L348.558 292.066C339.588 308.157 331.938 322.868 319.2 332.814L318.589 333.284C305.327 343.352 288.989 346.517 271.333 350.511L253.304 354.591C217.609 362.668 193.755 368.139 177.514 374.539C161.745 380.753 159.632 385.372 158.833 387.943C157.949 390.784 157.218 396.33 166.68 411.36C176.312 426.66 192.644 445.859 216.936 474.265L229.228 488.638L229.229 488.64C241.378 502.849 252.471 515.098 257.388 530.911L257.612 531.648C262.209 547.133 260.185 563.428 258.374 582.108L256.516 601.285C252.847 639.151 250.421 664.821 251.241 683.213C252.058 701.563 255.902 705.279 257.679 706.628C259.047 707.666 262.719 710.361 279.136 705.657C295.874 700.861 318.265 690.631 351.688 675.242L368.571 667.468L374.678 664.646C388.803 658.134 402.149 652.37 416.667 652.37C433.258 652.37 448.321 659.897 464.763 667.468L481.646 675.241C515.068 690.63 537.459 700.861 554.197 705.657C570.614 710.361 574.286 707.666 575.654 706.628C577.431 705.278 581.275 701.561 582.092 683.213C582.912 664.821 580.486 639.151 576.817 601.285V601.283L574.959 582.106C573.118 563.128 571.06 546.616 575.945 530.912C580.862 515.098 591.954 502.849 604.107 488.638L616.396 474.266L616.397 474.265C640.689 445.859 657.022 426.66 666.654 411.36C676.116 396.33 675.385 390.785 674.501 387.944L674.5 387.943C673.701 385.372 671.588 380.753 655.819 374.539C639.578 368.139 615.724 362.667 580.03 354.591L562 350.511C544.346 346.517 528.006 343.352 514.744 333.284L514.743 333.283C501.639 323.334 493.888 308.414 484.778 292.068L475.492 275.412L475.49 275.41C457.139 242.49 444.7 220.307 433.75 206.009C422.813 191.728 418.091 191.667 416.667 191.667Z" fill="black"/>
<path opacity="0.55" d="M166.273 49.9997C174.252 49.9729 181.13 55.6054 182.678 63.4323L182.69 63.4899C182.703 63.5526 182.725 63.6594 182.756 63.8083C182.819 64.1067 182.918 64.5734 183.054 65.1891C183.327 66.4216 183.748 68.2467 184.32 70.5182C185.468 75.0784 187.201 81.3522 189.534 88.1989C194.455 102.639 201.121 116.792 208.714 124.334C216.307 131.876 230.505 138.447 244.978 143.27C251.84 145.557 258.126 147.247 262.694 148.364C264.969 148.92 266.798 149.33 268.032 149.594C268.648 149.727 269.115 149.822 269.414 149.882C269.563 149.913 269.67 149.935 269.733 149.947C269.756 149.952 269.774 149.955 269.785 149.957C277.625 151.45 283.307 158.292 283.334 166.273C283.36 174.252 277.728 181.13 269.901 182.678C269.901 182.678 269.903 182.679 269.904 182.678C269.895 182.68 269.874 182.684 269.843 182.69C269.781 182.703 269.674 182.725 269.525 182.757C269.227 182.819 268.76 182.918 268.144 183.054C266.912 183.328 265.087 183.748 262.815 184.32C258.255 185.468 251.981 187.201 245.134 189.534C230.694 194.455 216.542 201.121 209 208.715C201.458 216.308 194.886 230.505 190.063 244.978C187.776 251.841 186.086 258.126 184.969 262.694C184.413 264.969 184.004 266.798 183.739 268.032C183.607 268.648 183.511 269.115 183.451 269.414C183.421 269.563 183.399 269.67 183.386 269.733C183.382 269.757 183.378 269.774 183.376 269.785C183.375 269.786 183.375 269.788 183.375 269.79C183.375 269.79 183.375 269.792 183.375 269.794C183.374 269.796 183.374 269.798 183.374 269.798C181.875 277.632 175.037 283.307 167.06 283.334C159.081 283.36 152.203 277.727 150.655 269.9V269.904C150.653 269.895 150.649 269.874 150.643 269.843C150.63 269.781 150.608 269.674 150.577 269.525C150.514 269.227 150.415 268.76 150.279 268.144C150.006 266.912 149.585 265.087 149.013 262.815C147.866 258.255 146.133 251.981 143.799 245.134C138.879 230.694 132.212 216.542 124.619 209C117.026 201.458 102.828 194.886 88.3551 190.063C81.4927 187.776 75.2071 186.086 70.6393 184.969C68.3638 184.413 66.5357 184.004 65.3014 183.739C64.6851 183.607 64.2183 183.511 63.9195 183.451C63.7703 183.421 63.663 183.399 63.6002 183.386C63.5767 183.382 63.5593 183.378 63.5484 183.376C55.7086 181.882 50.0266 175.041 49.9996 167.06C49.9728 159.081 55.6053 152.203 63.4322 150.655C63.4318 150.655 63.4304 150.655 63.4293 150.655C63.4383 150.653 63.4589 150.649 63.4898 150.643C63.5526 150.63 63.6594 150.608 63.8082 150.577C64.1066 150.514 64.5733 150.415 65.1891 150.279C66.4215 150.006 68.2467 149.585 70.5182 149.013C75.0783 147.866 81.3521 146.133 88.1988 143.799C102.639 138.879 116.792 132.212 124.334 124.619C131.876 117.026 138.447 102.828 143.27 88.3551C145.557 81.4927 147.247 75.2072 148.364 70.6393C148.92 68.3638 149.329 66.5357 149.594 65.3014C149.727 64.6852 149.822 64.2184 149.882 63.9196C149.913 63.7703 149.935 63.6631 149.947 63.6003C149.953 63.569 149.957 63.5486 149.959 63.5397C149.959 63.5376 149.959 63.5355 149.96 63.5348C151.458 55.7016 158.297 50.0266 166.273 49.9997ZM166.508 120.123C161.766 130.217 155.681 140.359 147.983 148.109C140.285 155.859 130.185 162.014 120.123 166.824C130.217 171.566 140.359 177.653 148.109 185.35C155.858 193.048 162.014 203.147 166.824 213.21C171.566 203.115 177.653 192.974 185.35 185.224C193.048 177.475 203.147 171.319 213.21 166.508C203.115 161.766 192.974 155.68 185.224 147.983C177.474 140.285 171.319 130.185 166.508 120.123ZM63.5426 183.376C63.5427 183.376 63.5432 183.376 63.5436 183.375C63.5431 183.375 63.5408 183.375 63.5396 183.375C63.5375 183.374 63.5354 183.374 63.5348 183.374L63.5426 183.376ZM269.79 149.958C269.79 149.958 269.792 149.958 269.794 149.959C269.796 149.959 269.798 149.96 269.798 149.96L269.791 149.958H269.79Z" fill="black"/>
<path opacity="0.55" d="M608.333 200V191.666H600C586.193 191.666 575 180.473 575 166.666C575 152.859 586.193 141.666 600 141.666H608.333V133.333C608.333 119.526 619.526 108.334 633.333 108.333C647.14 108.333 658.333 119.526 658.333 133.333V141.666H666.667C680.474 141.667 691.667 152.859 691.667 166.666C691.667 180.473 680.474 191.666 666.667 191.666H658.333V200C658.333 213.807 647.14 225 633.333 225C619.526 225 608.333 213.807 608.333 200Z" fill="black"/>
</svg>
