<svg width="30" height="30" viewBox="0 0 30 30" fill="none" xmlns="http://www.w3.org/2000/svg">
<path opacity="0.4" d="M1.5625 15C1.5625 11.2848 3.07153 7.92018 5.5078 5.48876C5.87428 5.12302 6.46784 5.12361 6.83359 5.49008C7.19935 5.85656 7.19876 6.45016 6.83228 6.81591C4.73402 8.90999 3.4375 11.8027 3.4375 15C3.4375 18.2347 4.76456 21.1577 6.90632 23.2574C7.27605 23.6199 7.28194 24.2135 6.91947 24.5832C6.557 24.9529 5.96341 24.9588 5.59368 24.5963C3.10704 22.1585 1.5625 18.7588 1.5625 15ZM26.5625 15C26.5625 11.8484 25.3028 8.99287 23.2573 6.90633C22.8948 6.5366 22.9007 5.94304 23.2705 5.58057C23.6402 5.21811 24.2338 5.22399 24.5962 5.59372C26.9714 8.01655 28.4375 11.338 28.4375 15C28.4375 18.7055 26.9363 22.0623 24.5113 24.4922C24.1456 24.8587 23.552 24.8593 23.1855 24.4936C22.819 24.1278 22.8184 23.5342 23.1841 23.1677C25.2727 21.0749 26.5625 18.189 26.5625 15Z" fill="white"/>
<path opacity="0.7" d="M6.5625 14.9778C6.5625 12.7537 7.52686 10.7516 9.06145 9.31548C9.4395 8.9617 10.0328 8.98138 10.3865 9.35943C10.7403 9.73748 10.7207 10.3307 10.3426 10.6845C9.15647 11.7945 8.4375 13.3128 8.4375 14.9778C8.4375 16.6621 9.17337 18.1965 10.3845 19.3098C10.7656 19.6602 10.7906 20.2533 10.4402 20.6344C10.0898 21.0156 9.49673 21.0406 9.11554 20.6902C7.54958 19.2507 6.5625 17.2279 6.5625 14.9778ZM21.5625 14.9778C21.5625 13.3364 20.8639 11.838 19.7081 10.7324C19.3339 10.3745 19.3208 9.78108 19.6787 9.40692C20.0366 9.03279 20.63 9.0196 21.0041 9.37748C22.5006 10.8089 23.4375 12.7856 23.4375 14.9778C23.4375 17.196 22.4782 19.1935 20.9506 20.6288C20.5732 20.9833 19.9799 20.9648 19.6254 20.5875C19.2709 20.2101 19.2894 19.6168 19.6667 19.2622C20.8473 18.153 21.5625 16.6385 21.5625 14.9778Z" fill="white"/>
<path d="M18.4375 15C18.4375 16.8985 16.8985 18.4375 15 18.4375C13.1015 18.4375 11.5625 16.8985 11.5625 15C11.5625 13.1015 13.1015 11.5625 15 11.5625C16.8985 11.5625 18.4375 13.1015 18.4375 15Z" fill="white"/>
</svg>
